<?xml version="1.0" encoding="UTF-8"?> <svg xmlns="http://www.w3.org/2000/svg" xmlns:xlink="http://www.w3.org/1999/xlink" baseProfile="tiny" class="icon-4" id="adv-ico6" viewBox="0 0 1200 1200" x="0px" y="0px" xml:space="preserve"> <g> <path d="M649.4,589.8l-524-1.1l-14-13.7l8-13.7l530-1.1c8.3,0,15.1,6.6,15.1,14.8l0,0 C664.5,583.2,657.7,589.8,649.4,589.8z" fill="#FBB737"></path> <path d="M661,561.3H119.3l-46.6-46.6v-27.5l46.6-46.6H661c25.7,0,46.6,20.9,46.6,46.6v27.5 C707.6,540.4,686.7,561.3,661,561.3z" fill="#E16E43"></path> <polygon fill="#ECD731" points="655,1140.9 125.3,1140.9 47.7,1063.2 47.7,666.4 125.3,588.7 655,588.7 732.6,666.4 732.6,1063.2 "></polygon> <polygon fill="#E16E43" points="938.4,1132.4 796.9,1132.4 713.7,1049.3 713.7,928 1021.5,928 1021.5,1049.3 "></polygon> <polygon fill="#FBB739" points="1009.8,943.1 725.6,943.1 659.3,884.3 561.3,67.5 696.9,58.1 1058.4,58.1 1172,67.5 1076,884.2 "></polygon> <polygon fill="#F9943B" points="561.3,67.5 574,77.9 649.6,84.2 792.9,80.7 948.4,104.9 1040,94.5 1108.9,100.2 1128.3,87.7 1172,67.5 1058.4,58.1 696.9,58.1 "></polygon> <polygon fill="#E16E42" points="561.3,67.5 609.5,72.9 744,70.2 923.8,81.5 1014.1,72.9 1074,81.5 1126.4,72.9 1172,67.5 1058.4,58.1 696.9,58.1 "></polygon> <polygon fill="#F9943B" points="125.3,1140.9 178.3,1095.5 252,1110.2 340.3,1110.2 431.2,1104 546.9,1114.5 613.6,1110.2 655,1140.9 "></polygon> <path d="M125.3,1140.9l55.4-15.3h96l63.6,4.4l68.9-11.8c0,0,97.7,6.6,99.9,4.9c2.1-1.7,49.4,2.4,49.4,2.4l96.5,15.3 H125.3z" fill="#E16E42"></path> <polygon fill="#FBEC80" points="664.5,899.8 673.6,943.1 673.6,993.7 669,1050.9 648.3,1091.2 698,1048.8 698,943.1 "></polygon> </g> <polygon fill="#FBEC80" points="81.7,676.1 151.5,609.2 188.6,1059.9 137.3,1110.8 73.1,1041 "></polygon> <polygon fill="#ECD731" points="102.4,501.2 147.3,459.9 587.9,459.9 "></polygon> <polygon fill="#FBEC80" points="587.9,125.3 680,848.9 734,904.1 854.8,904.1 "></polygon> <polygon fill="#FBEC80" points="990.6,904.1 1045.8,860 1109.1,254.1 "></polygon> <polygon fill="#FFCD84" points="919.2,1095.1 990.6,1028.3 990.6,947.8 916.9,1064 800.7,1095.1 "></polygon> <polygon fill="#FBEC80" points="171.2,609.2 611.5,712.6 599.8,619.7 "></polygon> </svg> 